<svg width="150" height="40" viewBox="0 0 150 40" fill="none" xmlns="http://www.w3.org/2000/svg">
<path d="M3.85156 7.71831V32.2808C3.85173 32.3341 3.86762 32.3862 3.89725 32.4305C3.92688 32.4747 3.96893 32.5093 4.01812 32.5298C4.06732 32.5503 4.12146 32.5558 4.17378 32.5456C4.22609 32.5355 4.27424 32.5101 4.31219 32.4727L17.1016 20.0002L4.31219 7.52644C4.27424 7.48902 4.22609 7.46364 4.17378 7.45349C4.12146 7.44333 4.06732 7.44884 4.01812 7.46933C3.96893 7.48982 3.92688 7.52438 3.89725 7.56867C3.86762 7.61297 3.85173 7.66502 3.85156 7.71831ZM22.4641 14.8752L6.42781 6.04019L6.41781 6.03456C6.14156 5.88456 5.87906 6.25831 6.10531 6.47581L18.6759 18.4958L22.4641 14.8752ZM6.10656 33.5246C5.87906 33.7421 6.14156 34.1158 6.41906 33.9658L6.42906 33.9602L22.4641 25.1252L18.6759 21.5033L6.10656 33.5246ZM28.9378 18.4377L24.4597 15.9714L20.2491 20.0002L24.4597 24.0271L28.9378 21.5627C30.1559 20.8896 30.1559 19.1108 28.9378 18.4377Z" fill="#2E2828"/>
<path d="M40.0012 11.4088C39.1772 11.4088 38.4252 11.2128 37.7452 10.8208C37.0652 10.4288 36.5292 9.8888 36.1372 9.2008C35.7532 8.5128 35.5612 7.7528 35.5612 6.9208C35.5612 6.0888 35.7532 5.3288 36.1372 4.6408C36.5292 3.9528 37.0652 3.4128 37.7452 3.0208C38.4252 2.6288 39.1772 2.4328 40.0012 2.4328C40.6492 2.4328 41.2372 2.5568 41.7652 2.8048C42.3012 3.0448 42.7612 3.3888 43.1452 3.8368L42.4252 4.5448C42.1052 4.1528 41.7452 3.8648 41.3452 3.6808C40.9532 3.4968 40.5052 3.4048 40.0012 3.4048C39.3852 3.4048 38.8172 3.5528 38.2972 3.8488C37.7772 4.1368 37.3612 4.5488 37.0492 5.0848C36.7452 5.6128 36.5932 6.2248 36.5932 6.9208C36.5932 7.6168 36.7452 8.2328 37.0492 8.7688C37.3612 9.2968 37.7772 9.7088 38.2972 10.0048C38.8172 10.2928 39.3852 10.4368 40.0012 10.4368C41.0492 10.4368 41.9372 10.0088 42.6652 9.1528L43.3972 9.8728C43.0052 10.3448 42.5172 10.7208 41.9332 11.0008C41.3492 11.2728 40.7052 11.4088 40.0012 11.4088ZM47.1142 11.4088C46.5302 11.4088 46.0062 11.2728 45.5422 11.0008C45.0782 10.7208 44.7142 10.3408 44.4502 9.8608C44.1942 9.3728 44.0662 8.8328 44.0662 8.2408C44.0662 7.6488 44.1942 7.1128 44.4502 6.6328C44.7142 6.1448 45.0782 5.7648 45.5422 5.4928C46.0062 5.2128 46.5302 5.0728 47.1142 5.0728C47.6982 5.0728 48.2222 5.2128 48.6862 5.4928C49.1582 5.7648 49.5222 6.1448 49.7782 6.6328C50.0422 7.1128 50.1742 7.6488 50.1742 8.2408C50.1742 8.8328 50.0422 9.3728 49.7782 9.8608C49.5222 10.3408 49.1582 10.7208 48.6862 11.0008C48.2222 11.2728 47.6982 11.4088 47.1142 11.4088ZM47.1142 10.4848C47.4742 10.4848 47.8102 10.3928 48.1222 10.2088C48.4342 10.0248 48.6822 9.7648 48.8662 9.4288C49.0582 9.0848 49.1542 8.6888 49.1542 8.2408C49.1542 7.7928 49.0582 7.4008 48.8662 7.0648C48.6822 6.7208 48.4342 6.4568 48.1222 6.2728C47.8102 6.0888 47.4742 5.9968 47.1142 5.9968C46.7622 5.9968 46.4302 6.0888 46.1182 6.2728C45.8062 6.4568 45.5542 6.7208 45.3622 7.0648C45.1782 7.4008 45.0862 7.7928 45.0862 8.2408C45.0862 8.6888 45.1782 9.0848 45.3622 9.4288C45.5542 9.7648 45.8062 10.0248 46.1182 10.2088C46.4302 10.3928 46.7622 10.4848 47.1142 10.4848ZM51.2108 5.2648H52.1828V6.1528H52.2308C52.3988 5.8488 52.6588 5.5928 53.0108 5.3848C53.3708 5.1768 53.7348 5.0728 54.1028 5.0728C54.5508 5.0728 54.9348 5.1808 55.2548 5.3968C55.5828 5.6048 55.8188 5.8928 55.9628 6.2608C56.1868 5.9008 56.4748 5.6128 56.8268 5.3968C57.1788 5.1808 57.5828 5.0728 58.0388 5.0728C58.7348 5.0728 59.2588 5.2848 59.6108 5.7088C59.9628 6.1328 60.1388 6.7168 60.1388 7.4608V11.2168H59.1188V7.6168C59.1188 7.0328 59.0068 6.6168 58.7828 6.3688C58.5668 6.1208 58.2308 5.9968 57.7748 5.9968C57.4708 5.9968 57.1948 6.0888 56.9468 6.2728C56.7068 6.4488 56.5188 6.6848 56.3828 6.9808C56.2468 7.2768 56.1788 7.5888 56.1788 7.9168V11.2168H55.1708V7.6168C55.1708 7.0328 55.0588 6.6168 54.8348 6.3688C54.6108 6.1208 54.2748 5.9968 53.8268 5.9968C53.5148 5.9968 53.2388 6.0888 52.9988 6.2728C52.7588 6.4568 52.5708 6.6968 52.4348 6.9928C52.2988 7.2888 52.2308 7.6048 52.2308 7.9408V11.2168H51.2108V5.2648ZM62.1819 4.0168C61.9819 4.0168 61.8099 3.9448 61.6659 3.8008C61.5219 3.6568 61.4499 3.4848 61.4499 3.2848C61.4499 3.0848 61.5219 2.9128 61.6659 2.7688C61.8099 2.6248 61.9819 2.5528 62.1819 2.5528C62.3819 2.5528 62.5539 2.6248 62.6979 2.7688C62.8419 2.9128 62.9139 3.0848 62.9139 3.2848C62.9139 3.4848 62.8419 3.6568 62.6979 3.8008C62.5619 3.9448 62.3899 4.0168 62.1819 4.0168ZM61.6779 5.2648H62.6859V11.2168H61.6779V5.2648ZM64.2655 5.2648H65.2375V6.1528H65.2855C65.4535 5.8488 65.7175 5.5928 66.0775 5.3848C66.4375 5.1768 66.8215 5.0728 67.2295 5.0728C67.9575 5.0728 68.5095 5.2848 68.8855 5.7088C69.2695 6.1328 69.4615 6.7128 69.4615 7.4488V11.2168H68.4535V7.6048C68.4535 6.5328 67.9535 5.9968 66.9535 5.9968C66.6335 5.9968 66.3455 6.0888 66.0895 6.2728C65.8335 6.4568 65.6335 6.6968 65.4895 6.9928C65.3535 7.2888 65.2855 7.6008 65.2855 7.9288V11.2168H64.2655V5.2648ZM73.4674 14.0008C72.7474 14.0008 72.1594 13.8288 71.7034 13.4848C71.2474 13.1408 70.9394 12.7408 70.7794 12.2848L71.7274 11.8888C71.8474 12.2408 72.0594 12.5248 72.3634 12.7408C72.6754 12.9648 73.0434 13.0768 73.4674 13.0768C74.0994 13.0768 74.5834 12.8888 74.9194 12.5128C75.2634 12.1448 75.4354 11.6288 75.4354 10.9648V10.3288H75.3874C75.1954 10.6328 74.9194 10.8848 74.5594 11.0848C74.1994 11.2848 73.7914 11.3848 73.3354 11.3848C72.8314 11.3848 72.3634 11.2488 71.9314 10.9768C71.4994 10.7048 71.1554 10.3288 70.8994 9.8488C70.6434 9.3688 70.5154 8.8288 70.5154 8.2288C70.5154 7.6288 70.6434 7.0888 70.8994 6.6088C71.1554 6.1288 71.4994 5.7528 71.9314 5.4808C72.3634 5.2088 72.8314 5.0728 73.3354 5.0728C73.7914 5.0728 74.1994 5.1728 74.5594 5.3728C74.9194 5.5728 75.1954 5.8248 75.3874 6.1288H75.4354V5.2648H76.4074V10.9768C76.4074 11.6328 76.2794 12.1888 76.0234 12.6448C75.7674 13.1008 75.4154 13.4408 74.9674 13.6648C74.5274 13.8888 74.0274 14.0008 73.4674 14.0008ZM73.4914 10.4608C73.8434 10.4608 74.1674 10.3728 74.4634 10.1968C74.7594 10.0128 74.9954 9.7528 75.1714 9.4168C75.3554 9.0808 75.4474 8.6848 75.4474 8.2288C75.4474 7.7728 75.3554 7.3768 75.1714 7.0408C74.9954 6.6968 74.7594 6.4368 74.4634 6.2608C74.1674 6.0848 73.8434 5.9968 73.4914 5.9968C73.1394 5.9968 72.8154 6.0888 72.5194 6.2728C72.2234 6.4488 71.9834 6.7048 71.7994 7.0408C71.6234 7.3768 71.5354 7.7728 71.5354 8.2288C71.5354 8.6848 71.6234 9.0808 71.7994 9.4168C71.9834 9.7528 72.2234 10.0128 72.5194 10.1968C72.8154 10.3728 73.1394 10.4608 73.4914 10.4608ZM82.9239 11.4088C82.4919 11.4088 82.0719 11.3208 81.6639 11.1448C81.2639 10.9608 80.9079 10.6968 80.5959 10.3528C80.2919 10.0008 80.0719 9.5768 79.9359 9.0808L80.9079 8.6848C81.0439 9.1968 81.2959 9.6168 81.6639 9.9448C82.0319 10.2728 82.4599 10.4368 82.9479 10.4368C83.4519 10.4368 83.8759 10.3048 84.2199 10.0408C84.5639 9.7688 84.7359 9.4008 84.7359 8.9368C84.7359 8.5368 84.5879 8.2088 84.2919 7.9528C84.0039 7.6888 83.5279 7.4448 82.8639 7.2208L82.3239 7.0288C81.7159 6.8128 81.2199 6.5288 80.8359 6.1768C80.4519 5.8248 80.2599 5.3368 80.2599 4.7128C80.2599 4.3048 80.3719 3.9288 80.5959 3.5848C80.8199 3.2328 81.1279 2.9528 81.5199 2.7448C81.9199 2.5368 82.3679 2.4328 82.8639 2.4328C83.3599 2.4328 83.7919 2.5248 84.1599 2.7088C84.5359 2.8928 84.8319 3.1168 85.0479 3.3808C85.2719 3.6448 85.4239 3.9048 85.5039 4.1608L84.5559 4.5688C84.4679 4.2648 84.2839 3.9968 84.0039 3.7648C83.7239 3.5248 83.3519 3.4048 82.8879 3.4048C82.4479 3.4048 82.0719 3.5288 81.7599 3.7768C81.4479 4.0248 81.2919 4.3368 81.2919 4.7128C81.2919 5.0488 81.4239 5.3248 81.6879 5.5408C81.9519 5.7488 82.3519 5.9448 82.8879 6.1288L83.4399 6.3208C84.1679 6.5848 84.7359 6.9168 85.1439 7.3168C85.5599 7.7088 85.7679 8.2448 85.7679 8.9248C85.7679 9.4768 85.6239 9.9408 85.3359 10.3168C85.0559 10.6928 84.6999 10.9688 84.2679 11.1448C83.8359 11.3208 83.3879 11.4088 82.9239 11.4088ZM89.747 11.4088C89.163 11.4088 88.639 11.2728 88.175 11.0008C87.711 10.7208 87.347 10.3408 87.083 9.8608C86.827 9.3728 86.699 8.8328 86.699 8.2408C86.699 7.6488 86.827 7.1128 87.083 6.6328C87.347 6.1448 87.711 5.7648 88.175 5.4928C88.639 5.2128 89.163 5.0728 89.747 5.0728C90.331 5.0728 90.855 5.2128 91.319 5.4928C91.791 5.7648 92.155 6.1448 92.411 6.6328C92.675 7.1128 92.807 7.6488 92.807 8.2408C92.807 8.8328 92.675 9.3728 92.411 9.8608C92.155 10.3408 91.791 10.7208 91.319 11.0008C90.855 11.2728 90.331 11.4088 89.747 11.4088ZM89.747 10.4848C90.107 10.4848 90.443 10.3928 90.755 10.2088C91.067 10.0248 91.315 9.7648 91.499 9.4288C91.691 9.0848 91.787 8.6888 91.787 8.2408C91.787 7.7928 91.691 7.4008 91.499 7.0648C91.315 6.7208 91.067 6.4568 90.755 6.2728C90.443 6.0888 90.107 5.9968 89.747 5.9968C89.395 5.9968 89.063 6.0888 88.751 6.2728C88.439 6.4568 88.187 6.7208 87.995 7.0648C87.811 7.4008 87.719 7.7928 87.719 8.2408C87.719 8.6888 87.811 9.0848 87.995 9.4288C88.187 9.7648 88.439 10.0248 88.751 10.2088C89.063 10.3928 89.395 10.4848 89.747 10.4848ZM96.6728 11.4088C96.0888 11.4088 95.5648 11.2728 95.1008 11.0008C94.6368 10.7208 94.2728 10.3408 94.0088 9.8608C93.7528 9.3728 93.6248 8.8328 93.6248 8.2408C93.6248 7.6488 93.7528 7.1128 94.0088 6.6328C94.2728 6.1448 94.6368 5.7648 95.1008 5.4928C95.5648 5.2128 96.0888 5.0728 96.6728 5.0728C97.2568 5.0728 97.7808 5.2128 98.2448 5.4928C98.7168 5.7648 99.0808 6.1448 99.3368 6.6328C99.6008 7.1128 99.7328 7.6488 99.7328 8.2408C99.7328 8.8328 99.6008 9.3728 99.3368 9.8608C99.0808 10.3408 98.7168 10.7208 98.2448 11.0008C97.7808 11.2728 97.2568 11.4088 96.6728 11.4088ZM96.6728 10.4848C97.0328 10.4848 97.3688 10.3928 97.6808 10.2088C97.9928 10.0248 98.2408 9.7648 98.4248 9.4288C98.6168 9.0848 98.7128 8.6888 98.7128 8.2408C98.7128 7.7928 98.6168 7.4008 98.4248 7.0648C98.2408 6.7208 97.9928 6.4568 97.6808 6.2728C97.3688 6.0888 97.0328 5.9968 96.6728 5.9968C96.3208 5.9968 95.9888 6.0888 95.6768 6.2728C95.3648 6.4568 95.1128 6.7208 94.9208 7.0648C94.7368 7.4008 94.6448 7.7928 94.6448 8.2408C94.6448 8.6888 94.7368 9.0848 94.9208 9.4288C95.1128 9.7648 95.3648 10.0248 95.6768 10.2088C95.9888 10.3928 96.3208 10.4848 96.6728 10.4848ZM100.769 5.2648H101.741V6.1528H101.789C101.957 5.8488 102.221 5.5928 102.581 5.3848C102.941 5.1768 103.325 5.0728 103.733 5.0728C104.461 5.0728 105.013 5.2848 105.389 5.7088C105.773 6.1328 105.965 6.7128 105.965 7.4488V11.2168H104.957V7.6048C104.957 6.5328 104.457 5.9968 103.457 5.9968C103.137 5.9968 102.849 6.0888 102.593 6.2728C102.337 6.4568 102.137 6.6968 101.993 6.9928C101.857 7.2888 101.789 7.6008 101.789 7.9288V11.2168H100.769V5.2648Z" fill="#2E2828"/>
<path d="M71.3796 23.4526C68.2132 23.4526 65.6264 25.821 65.6264 29.0888C65.6264 32.3301 68.2132 34.7234 71.3796 34.7234C74.5528 34.7234 77.1396 32.3301 77.1396 29.0888C77.1396 25.821 74.5528 23.4526 71.3796 23.4526ZM71.3796 32.504C69.6422 32.504 68.1474 31.0945 68.1474 29.0888C68.1474 27.0566 69.6422 25.672 71.3796 25.672C73.117 25.672 74.6185 27.0566 74.6185 29.0888C74.6185 31.0945 73.117 32.504 71.3796 32.504ZM58.8267 23.4526C55.6535 23.4526 53.0735 25.821 53.0735 29.0888C53.0735 32.3301 55.6535 34.7234 58.8267 34.7234C61.9982 34.7234 64.5799 32.3301 64.5799 29.0888C64.5799 25.821 61.9982 23.4526 58.8267 23.4526ZM58.8267 32.504C57.0876 32.504 55.5878 31.0945 55.5878 29.0888C55.5878 27.0566 57.0876 25.672 58.8267 25.672C60.5641 25.672 62.0589 27.0566 62.0589 29.0888C62.0589 31.0945 60.5641 32.504 58.8267 32.504ZM43.8892 25.18V27.575H49.7081C49.5379 28.9132 49.0829 29.8971 48.3853 30.5827C47.5359 31.4109 46.2131 32.3301 43.8892 32.3301C40.3082 32.3301 37.504 29.4896 37.504 25.9701C37.504 22.4506 40.3082 19.6101 43.8892 19.6101C45.8255 19.6101 47.2343 20.3537 48.2741 21.3177L49.9913 19.63C48.5369 18.2652 46.6024 17.2168 43.8892 17.2168C38.9786 17.2168 34.8516 21.1438 34.8516 25.9701C34.8516 30.7964 38.9786 34.7234 43.8892 34.7234C46.5434 34.7234 48.5369 33.8687 50.1042 32.2655C51.7101 30.6871 52.2106 28.4677 52.2106 26.6756C52.2106 26.1191 52.1635 25.6074 52.0792 25.18H43.8892ZM104.97 27.0367C104.497 25.7763 103.036 23.4526 100.06 23.4526C97.1107 23.4526 94.6554 25.7366 94.6554 29.0888C94.6554 32.2456 97.0854 34.7234 100.343 34.7234C102.977 34.7234 104.497 33.145 105.122 32.2257L103.167 30.9455C102.515 31.8829 101.627 32.504 100.343 32.504C99.0672 32.504 98.1521 31.9293 97.5657 30.7964L105.235 27.6777L104.97 27.0367ZM97.1512 28.9132C97.0854 26.7402 98.8684 25.6272 100.146 25.6272C101.147 25.6272 101.996 26.1191 102.279 26.8231L97.1512 28.9132ZM90.9177 34.3805H93.4387V17.818H90.9177V34.3805ZM86.789 24.708H86.7047C86.1385 24.0488 85.0583 23.4526 83.6899 23.4526C80.8183 23.4526 78.1928 25.9303 78.1928 29.107C78.1928 32.2655 80.8183 34.7234 83.6899 34.7234C85.0583 34.7234 86.1385 34.1221 86.7047 33.4431H86.789V34.2513C86.789 36.4061 85.6177 37.5638 83.7287 37.5638C82.1884 37.5638 81.2329 36.4707 80.8386 35.5515L78.6461 36.4508C79.2781 37.9448 80.9515 39.7832 83.7287 39.7832C86.6845 39.7832 89.1785 38.074 89.1785 33.9151V23.7954H86.789V24.708ZM83.9056 32.504C82.1682 32.504 80.7139 31.0746 80.7139 29.107C80.7139 27.1212 82.1682 25.672 83.9056 25.672C85.6178 25.672 86.9676 27.1212 86.9676 29.107C86.9676 31.0746 85.6178 32.504 83.9056 32.504ZM116.773 17.818H110.744V34.3805H113.258V28.105H116.773C119.566 28.105 122.304 26.1191 122.304 22.9607C122.304 19.8039 119.559 17.818 116.773 17.818ZM116.839 25.8011H113.258V20.1219H116.839C118.716 20.1219 119.788 21.6539 119.788 22.9607C119.788 24.2426 118.716 25.8011 116.839 25.8011ZM132.382 23.4211C130.565 23.4211 128.676 24.2095 127.899 25.9568L130.13 26.876C130.61 25.9568 131.494 25.6587 132.427 25.6587C133.731 25.6587 135.054 26.4289 135.075 27.7886V27.9625C134.62 27.7042 133.646 27.3216 132.447 27.3216C130.044 27.3216 127.596 28.6217 127.596 31.0481C127.596 33.2675 129.564 34.6969 131.777 34.6969C133.469 34.6969 134.402 33.9466 134.989 33.0737H135.075V34.354H137.503V28.0006C137.503 25.0641 135.272 23.4211 132.382 23.4211ZM132.078 32.4974C131.256 32.4974 130.11 32.0965 130.11 31.0945C130.11 29.8126 131.539 29.3207 132.776 29.3207C133.883 29.3207 134.402 29.5608 135.075 29.8772C134.877 31.4109 133.534 32.4974 132.078 32.4974ZM146.35 23.7838L143.46 30.9637H143.374L140.386 23.7838H137.675L142.164 33.8174L139.603 39.4006H142.23L149.148 23.7838H146.35ZM123.686 34.3805H126.207V17.818H123.686V34.3805Z" fill="#2E2828"/>
</svg>
